<svg xmlns="http://www.w3.org/2000/svg" viewBox="0 0 960 300" role="img" aria-labelledby="title desc">
  <title id="title">Hard Money Heroes enemies and death effects</title>
  <desc id="desc">Pixel-art enemy concepts showing attack tells, blood effects, smoke bursts, and death particles.</desc>
  <rect width="960" height="300" fill="#070817"/>
  <g font-family="monospace" font-size="13" fill="#19f7ff"><text x="24" y="28">FUD GOBLIN</text><text x="144" y="28">PAPER HAND</text><text x="286" y="28">GAS WISP</text><text x="426" y="28">SYBIL DRONE</text><text x="584" y="28">MEV REAPER</text><text x="742" y="28">LIQUIDATION GOLEM</text></g>
  <g shape-rendering="crispEdges">
    <g transform="translate(28 82)"><rect x="20" y="40" width="42" height="24" fill="#6d3cff"/><rect x="4" y="32" width="24" height="10" fill="#6d3cff"/><rect x="54" y="32" width="24" height="10" fill="#6d3cff"/><rect x="32" y="48" width="6" height="6" fill="#ff476f"/><g fill="#ff1f4f"><rect x="82" y="42" width="6" height="6"/><rect x="94" y="52" width="5" height="5"/><rect x="88" y="66" width="8" height="8"/></g></g>
    <g transform="translate(150 78)"><rect x="18" y="34" width="42" height="58" fill="#ff476f"/><rect x="26" y="18" width="26" height="18" fill="#ffe84d"/><rect x="50" y="48" width="24" height="7" fill="#f9f7ff"/><g fill="#ff1f4f"><rect x="86" y="58" width="12" height="7"/><rect x="102" y="68" width="8" height="8"/><rect x="76" y="80" width="7" height="7"/></g></g>
    <g transform="translate(294 74)"><rect x="12" y="38" width="48" height="62" fill="#ff7b2f"/><rect x="18" y="18" width="34" height="22" fill="#aab6d3"/><rect x="60" y="52" width="28" height="8" fill="#ffe84d"/><g fill="#ff7b2f"><rect x="96" y="38" width="20" height="20"/><rect x="108" y="62" width="14" height="14"/><rect x="82" y="72" width="10" height="10"/></g></g>
    <g transform="translate(438 80)"><rect x="8" y="34" width="70" height="32" fill="#19f7ff"/><rect x="24" y="20" width="38" height="12" fill="#f9f7ff"/><rect x="72" y="44" width="22" height="6" fill="#ff476f"/><g fill="#19f7ff"><rect x="104" y="34" width="10" height="10"/><rect x="118" y="48" width="7" height="7"/><rect x="96" y="66" width="13" height="13"/></g></g>
    <g transform="translate(596 66)"><rect x="10" y="42" width="62" height="76" fill="#aab6d3"/><rect x="22" y="20" width="38" height="24" fill="#ffe84d"/><rect x="72" y="58" width="30" height="24" fill="#aab6d3"/><g fill="#ff1f4f"><rect x="112" y="68" width="9" height="9"/><rect x="126" y="80" width="12" height="12"/><rect x="104" y="96" width="7" height="7"/></g></g>
    <g transform="translate(768 74)"><rect x="20" y="30" width="72" height="72" fill="#b86cff"/><rect x="38" y="48" width="34" height="34" fill="#f9f7ff"/><rect x="50" y="60" width="12" height="12" fill="#ff1f4f"/><g fill="#b86cff"><rect x="106" y="38" width="14" height="14"/><rect x="122" y="58" width="9" height="9"/><rect x="100" y="86" width="18" height="18"/></g></g>
  </g>
</svg>
